<?xml version="1.0" encoding="utf-8" ?>
<svg xmlns="http://www.w3.org/2000/svg" xmlns:xlink="http://www.w3.org/1999/xlink" width="12" height="12" viewBox="0 0 12 12">
	<defs>
		<clipPath id="clipPath4022354755">
			<path d="M0 0L12 0L12 12L0 12L0 0Z" fill-rule="nonzero" transform="matrix(1 0 0 1 -0 -0)"/>
		</clipPath>
	</defs>
	<g clip-path="url(#clipPath4022354755)">
		<path d="M10.478 1.86C10.4726 1.7738 10.4411 1.69848 10.3836 1.63403C10.3261 1.56958 10.2548 1.52975 10.1698 1.51453C8.14248 1.15078 7.29615 0.887816 5.40428 0.0332849C5.35519 0.011095 5.3037 2.98023e-08 5.24983 0C5.19595 2.98023e-08 5.14447 0.011095 5.09537 0.0332849C3.2035 0.887816 2.35717 1.15078 0.329827 1.51453C0.244806 1.52975 0.173547 1.56958 0.116048 1.63403C0.05855 1.69848 0.0270751 1.7738 0.0216237 1.86C-0.0686107 3.29227 0.123811 4.6268 0.594202 5.82657C0.786802 6.31588 1.02432 6.78232 1.30676 7.22589C1.5892 7.66946 1.91137 8.082 2.27326 8.46352C3.52647 9.79313 4.85701 10.3706 5.11084 10.4728C5.15594 10.4911 5.20282 10.5002 5.25147 10.5002C5.30012 10.5002 5.34699 10.4911 5.39209 10.4728C5.64592 10.3706 6.97647 9.79313 8.22967 8.46352C8.59098 8.08186 8.91258 7.66925 9.19446 7.22569C9.47635 6.78212 9.71334 6.31575 9.90545 5.82657C10.3758 4.6268 10.5683 3.29227 10.478 1.86ZM7.40772 3.62039L4.81084 6.62039C4.7771 6.65949 4.73699 6.6903 4.69052 6.71282C4.64405 6.73534 4.59501 6.74774 4.54342 6.75L4.52795 6.75C4.47888 6.75001 4.43163 6.74075 4.38619 6.72221C4.34075 6.70367 4.30051 6.67723 4.26545 6.64289L3.11233 5.51321C3.03835 5.44072 3.00084 5.35269 2.99978 5.24913C2.99873 5.14556 3.03445 5.05679 3.10694 4.98282C3.17942 4.90884 3.26745 4.87133 3.37102 4.87027C3.47458 4.86922 3.56335 4.90494 3.63733 4.97742L4.50451 5.82797L6.84123 3.12961C6.90901 3.05136 6.99453 3.00852 7.09778 3.00109C7.20104 2.99365 7.29181 3.02381 7.3701 3.09155C7.44838 3.15929 7.49127 3.24478 7.49875 3.34804C7.50623 3.45129 7.47612 3.54207 7.40842 3.62039L7.40772 3.62039Z" fill-rule="nonzero" transform="matrix(1 0 0 1 0.750173 0.749996)" fill="rgb(37, 99, 235)"/>
	</g>
</svg>
