<?xml version="1.0" encoding="utf-8" ?>
<svg xmlns="http://www.w3.org/2000/svg" xmlns:xlink="http://www.w3.org/1999/xlink" width="32" height="32" viewBox="0 0 32 32">
	<defs>
		<clipPath id="clipPath0632590985">
			<path d="M0 0L32 0L32 32L0 32L0 0Z" fill-rule="nonzero" transform="matrix(1 0 0 1 0 0)"/>
		</clipPath>
	</defs>
	<g clip-path="url(#clipPath0632590985)">
		<defs>
			<clipPath id="clipPath4433042029">
				<path d="M0 0L32 0L32 32L0 32L0 0Z" fill-rule="nonzero" transform="matrix(1 0 0 1 -0 -0)"/>
			</clipPath>
		</defs>
		<g clip-path="url(#clipPath4433042029)">
			<path d="M9.25 18L6.75 18C6.3375 18 6 17.6625 6 17.25L6 14.75C6 14.3375 6.3375 14 6.75 14L9.25 14C9.6625 14 10 14.3375 10 14.75L10 17.25C10 17.6625 9.6625 18 9.25 18ZM16 17.25L16 14.75C16 14.3375 15.6625 14 15.25 14L12.75 14C12.3375 14 12 14.3375 12 14.75L12 17.25C12 17.6625 12.3375 18 12.75 18L15.25 18C15.6625 18 16 17.6625 16 17.25ZM22 17.25L22 14.75C22 14.3375 21.6625 14 21.25 14L18.75 14C18.3375 14 18 14.3375 18 14.75L18 17.25C18 17.6625 18.3375 18 18.75 18L21.25 18C21.6625 18 22 17.6625 22 17.25ZM16 23.25L16 20.75C16 20.3375 15.6625 20 15.25 20L12.75 20C12.3375 20 12 20.3375 12 20.75L12 23.25C12 23.6625 12.3375 24 12.75 24L15.25 24C15.6625 24 16 23.6625 16 23.25ZM10 23.25L10 20.75C10 20.3375 9.6625 20 9.25 20L6.75 20C6.3375 20 6 20.3375 6 20.75L6 23.25C6 23.6625 6.3375 24 6.75 24L9.25 24C9.6625 24 10 23.6625 10 23.25ZM22 23.25L22 20.75C22 20.3375 21.6625 20 21.25 20L18.75 20C18.3375 20 18 20.3375 18 20.75L18 23.25C18 23.6625 18.3375 24 18.75 24L21.25 24C21.6625 24 22 23.6625 22 23.25ZM28 7L28 29C28 30.6562 26.6562 32 25 32L3 32C1.34375 32 0 30.6562 0 29L0 7C0 5.34375 1.34375 4 3 4L6 4L6 0.75C6 0.3375 6.3375 0 6.75 0L9.25 0C9.6625 0 10 0.3375 10 0.75L10 4L18 4L18 0.75C18 0.3375 18.3375 0 18.75 0L21.25 0C21.6625 0 22 0.3375 22 0.75L22 4L25 4C26.6562 4 28 5.34375 28 7ZM25 28.625L25 10L3 10L3 28.625C3 28.8312 3.16875 29 3.375 29L24.625 29C24.8312 29 25 28.8312 25 28.625Z" fill-rule="nonzero" transform="matrix(1 0 0 1 2 0)" fill="rgb(26, 115, 232)"/>
		</g>
	</g>
</svg>
