<?xml version="1.0" encoding="utf-8" ?>
<svg xmlns="http://www.w3.org/2000/svg" xmlns:xlink="http://www.w3.org/1999/xlink" width="24" height="24" viewBox="0 0 24 24">
	<defs>
		<clipPath id="clipPath7018432745">
			<path d="M0 0L24 0L24 24L0 24L0 0Z" fill-rule="nonzero" transform="matrix(1 0 0 1 0 0)"/>
		</clipPath>
	</defs>
	<g clip-path="url(#clipPath7018432745)">
		<defs>
			<clipPath id="clipPath7080626858">
				<path d="M0 0L24 0L24 24L0 24L0 0Z" fill-rule="nonzero" transform="matrix(1 0 0 1 -0 -0)"/>
			</clipPath>
		</defs>
		<g clip-path="url(#clipPath7080626858)">
			<path d="M13.5 11.625L13.5 12.9375C13.5 13.2469 13.2469 13.5 12.9375 13.5L5.0625 13.5C4.75313 13.5 4.5 13.2469 4.5 12.9375L4.5 11.625C4.5 11.3156 4.75313 11.0625 5.0625 11.0625L12.9375 11.0625C13.2469 11.0625 13.5 11.3156 13.5 11.625ZM12.9375 15L5.0625 15C4.75313 15 4.5 15.2531 4.5 15.5625L4.5 16.875C4.5 17.1844 4.75313 17.4375 5.0625 17.4375L12.9375 17.4375C13.2469 17.4375 13.5 17.1844 13.5 16.875L13.5 15.5625C13.5 15.2531 13.2469 15 12.9375 15ZM18 6.18281L18 21.75C18 22.9922 16.9922 24 15.75 24L2.25 24C1.00781 24 0 22.9922 0 21.75L0 2.25C0 1.00781 1.00781 0 2.25 0L11.8172 0C12.4125 0 12.9844 0.239063 13.4062 0.660938L17.3391 4.59375C17.7609 5.01094 18 5.5875 18 6.18281ZM12 2.43281L12 6L15.5672 6L12 2.43281ZM15.75 21.75L15.75 8.25L10.875 8.25C10.2516 8.25 9.75 7.74844 9.75 7.125L9.75 2.25L2.25 2.25L2.25 21.75L15.75 21.75Z" fill-rule="nonzero" transform="matrix(1 0 0 1 3 0)" fill="rgb(55, 65, 81)"/>
		</g>
	</g>
</svg>
