<?xml version="1.0" encoding="utf-8" ?>
<svg xmlns="http://www.w3.org/2000/svg" xmlns:xlink="http://www.w3.org/1999/xlink" width="32" height="25.6001" viewBox="0 0 32 25.6001">
	<defs>
		<clipPath id="clipPath7004081322">
			<path d="M0 0L32 0L32 25.6L0 25.6L0 0Z" fill-rule="nonzero" transform="matrix(1 0 0 1 0 2.38419e-07)"/>
		</clipPath>
	</defs>
	<g clip-path="url(#clipPath7004081322)">
		<defs>
			<clipPath id="clipPath0087179707">
				<path d="M0 0L32 0L32 25.6L0 25.6L0 0Z" fill-rule="nonzero" transform="matrix(1 0 0 1 0 2.38419e-07)"/>
			</clipPath>
		</defs>
		<g clip-path="url(#clipPath0087179707)">
			<path d="M16 3.2C13.349 3.2 11.2 5.2056 11.2 7.68C11.2 10.154 13.349 12.16 16 12.16C18.65 12.16 20.8 10.1548 20.8 7.68C20.8 5.2056 18.651 3.2 16 3.2ZM18 9.92C18 10.0968 17.821 10.24 17.6 10.24L14.4 10.24C14.179 10.24 14 10.0968 14 9.92L14 9.28C14 9.1032 14.179 8.96 14.4 8.96L15.2 8.96L15.2 6.7424L15.1765 6.7548C15.0846 6.80385 14.9845 6.8197 14.8762 6.80236C14.7679 6.78502 14.6832 6.73956 14.622 6.666L14.178 6.1336C14.1167 6.0601 14.0969 5.98003 14.1186 5.89339C14.1402 5.80675 14.197 5.73895 14.289 5.69L15.0555 5.2812C15.154 5.22864 15.26 5.18863 15.3733 5.16118C15.4867 5.13372 15.6026 5.11999 15.721 5.12L16.4 5.12C16.621 5.12 16.8 5.2632 16.8 5.44L16.8 8.96L17.6 8.96C17.821 8.96 18 9.1032 18 9.28L18 9.92ZM30.4 0L1.6 0C0.7165 0 0 0.5732 0 1.28L0 14.08C0 14.7868 0.7165 15.36 1.6 15.36L30.4 15.36C31.2835 15.36 32 14.7868 32 14.08L32 1.28C32 0.5732 31.2835 0 30.4 0ZM29.6 10.88C27.8325 10.88 26.4 12.026 26.4 13.44L5.6 13.44C5.6 12.026 4.1675 10.88 2.4 10.88L2.4 4.48C4.1675 4.48 5.6 3.334 5.6 1.92L26.4 1.92C26.4 3.334 27.8325 4.48 29.6 4.48L29.6 10.88Z" fill-rule="nonzero" transform="matrix(1 0 0 1 0 5.12002)" fill="rgb(26, 115, 232)"/>
		</g>
	</g>
</svg>
