<?xml version="1.0" encoding="utf-8" ?>
<svg xmlns="http://www.w3.org/2000/svg" xmlns:xlink="http://www.w3.org/1999/xlink" width="32" height="32" viewBox="0 0 32 32">
	<defs>
		<clipPath id="clipPath4380220217">
			<path d="M0 0L32 0L32 32L0 32L0 0Z" fill-rule="nonzero" transform="matrix(1 0 0 1 -0 -0)"/>
		</clipPath>
	</defs>
	<g clip-path="url(#clipPath4380220217)">
		<path d="M28.1562 5.22969L16.1562 0.229691C15.7871 0.0765638 15.4028 0 15.0031 0C14.6035 0 14.2191 0.0765638 13.85 0.229691L1.85 5.22969C0.73125 5.69219 0 6.78594 0 7.99844C0 20.4047 7.15625 28.9797 13.8438 31.7672C14.5813 32.0734 15.4125 32.0734 16.15 31.7672C21.5063 29.5359 30 21.8297 30 7.99844C30 6.78594 29.2687 5.69219 28.1562 5.22969ZM15.0063 27.8922L15 4.07969L25.9937 8.66094C25.7875 18.1234 20.8625 24.9797 15.0063 27.8922Z" fill-rule="nonzero" transform="matrix(1 0 0 1 1 0.00155838)" fill="rgb(26, 115, 232)"/>
	</g>
</svg>
